{"title":"The Past ENGsub BluRayRip.avi","uid":9088357,"size":628714136,"categoryP":"video","categoryS":"movies","magnet":"?xt=urn:btih:0954ad7652e9412f1d4bcb045a184c84522415af&amp;dn=The+Past+ENGsub+BluRayRip.avi&amp;tr=udp%3A%2F%2Ftracker.openbittorrent.com%3A80&amp;tr=udp%3A%2F%2Fopen.demonii.com%3A1337&amp;tr=udp%3A%2F%2Ftracker.coppersurfer.tk%3A6969&amp;tr=udp%3A%2F%2Fexodus.desync.com%3A6969","seeders":1,"leechers":0,"uploader":"globeplus","files":-1,"time":1382540083,"description":"The Past ENGsub BluRayRip.avi\n\nFormat                                   : AVI\nFormat/Info                              : Audio Video Interleave\nFile size                                : 600 MiB\nDuration                                 : 2h 10mn\nOverall bit rate                         : 642 Kbps\nWriting application                      : Lavf52.57.1\nWriting library                          : VirtualDub build 32842/release\n\nVideo\n\nID                                       : 0\nFormat                                   : MPEG-4 Visual\nFormat profile                           : Simple@L3\nFormat settings, BVOP                    : 2\nFormat settings, QPel                    : No\nFormat settings, GMC                     : No warppoints\nFormat settings, Matrix                  : Default (H.263)\nMuxing mode                              : Packed bitstream\nCodec ID                                 : XVID\nCodec ID/Hint                            : XviD\nDuration                                 : 2h 10mn\nBit rate                                 : 501 Kbps\nWidth                                    : 320 pixels\nHeight                                   : 240 pixels\nDisplay aspect ratio                     : 4:3\nFrame rate                               : 23.976 fps\nColor space                              : YUV\nChroma subsampling                       : 4:2:0\nBit depth                                : 8 bits\nScan type                                : Progressive\nCompression mode                         : Lossy\nBits/(Pixel*Frame)                       : 0.272\nStream size                              : 468 MiB (78%)\nWriting library                          : XviD 1.0.2 (UTC 2004-08-29)\n\nAudio\n\nID                                       : 1\nFormat                                   : MPEG Audio\nFormat version                           : Version 1\nFormat profile                           : Layer 3\nMode                                     : Joint stereo\nMode extension                           : MS Stereo\nCodec ID                                 : 55\nCodec ID/Hint                            : MP3\nDuration                                 : 2h 10mn\nBit rate mode                            : Constant\nBit rate                                 : 128 Kbps\nChannel(s)                               : 2 channels\nSampling rate                            : 48.0 KHz\nCompression mode                         : Lossy\nStream size                              : 120 MiB (20%)\nAlignment                                : Aligned on interleaves\nInterleave, duration                     : 24 ms (0.58 video frame)\nInterleave, preload duration             : 504 ms\n\n\nPlot\n\nComing back to finalize his divorce procedure, Ahmad, an Iranian man, arrives in Paris after four years to meet his (soon to be) ex-wife and her daughters from her previous marriage. She is in a relationship with an Arab man named Samir who has a son and whose wife is in a coma. The relationship of the older daughter and her mother is strained because the daughter disapproves of her mother's relationship with Samir.\n\n\n\n\n* enjoy ...\n","torrent":{"xt":"urn:btih:0954ad7652e9412f1d4bcb045a184c84522415af","amp;dn":"The+Past+ENGsub+BluRayRip.avi","amp;tr":["udp%3A%2F%2Ftracker.openbittorrent.com%3A80","udp%3A%2F%2Fopen.demonii.com%3A1337","udp%3A%2F%2Ftracker.coppersurfer.tk%3A6969","udp%3A%2F%2Fexodus.desync.com%3A6969"],"infoHash":"0954ad7652e9412f1d4bcb045a184c84522415af","infoHashBuffer":{"type":"Buffer","data":[9,84,173,118,82,233,65,47,29,75,203,4,90,24,76,132,82,36,21,175]},"announce":[],"urlList":[]}}